{
    "accessors": {
        "accessor_100": {
            "bufferView": "bufferView_123",
            "byteOffset": 1224,
            "byteStride": 12,
            "componentType": 5126,
            "count": 18,
            "max": [
                0.889558,
                0.456822,
                1
            ],
            "min": [
                -1,
                -1,
                -1
            ],
            "type": "VEC3"
        },
        "accessor_116": {
            "bufferView": "bufferView_122",
            "byteOffset": 228,
            "byteStride": 0,
            "componentType": 5123,
            "count": 6,
            "type": "SCALAR"
        },
        "accessor_118": {
            "bufferView": "bufferView_123",
            "byteOffset": 1920,
            "byteStride": 12,
            "componentType": 5126,
            "count": 4,
            "max": [
                -0.01,
                -0.01,
                0.00499999
            ],
            "min": [
                -0.504825,
                -0.473725,
                0.00499999
            ],
            "type": "VEC3"
        },
        "accessor_120": {
            "bufferView": "bufferView_123",
            "byteOffset": 1968,
            "byteStride": 12,
            "componentType": 5126,
            "count": 4,
            "max": [
                0,
                0,
                1
            ],
            "min": [
                0,
                0,
                1
            ],
            "type": "VEC3"
        },
        "accessor_16": {
            "bufferView": "bufferView_122",
            "byteOffset": 168,
            "byteStride": 0,
            "componentType": 5123,
            "count": 30,
            "type": "SCALAR"
        },
        "accessor_18": {
            "bufferView": "bufferView_123",
            "byteOffset": 1440,
            "byteStride": 12,
            "componentType": 5126,
            "count": 20,
            "max": [
                -0.01,
                -0.01,
                0.00499999
            ],
            "min": [
                -0.504825,
                -0.473725,
                -0.00499999
            ],
            "type": "VEC3"
        },
        "accessor_20": {
            "bufferView": "bufferView_123",
            "byteOffset": 1680,
            "byteStride": 12,
            "componentType": 5126,
            "count": 20,
            "max": [
                1,
                1,
                4.47061e-017
            ],
            "min": [
                -0.889558,
                -0.947973,
                -1
            ],
            "type": "VEC3"
        },
        "accessor_36": {
            "bufferView": "bufferView_122",
            "byteOffset": 0,
            "byteStride": 0,
            "componentType": 5123,
            "count": 36,
            "type": "SCALAR"
        },
        "accessor_38": {
            "bufferView": "bufferView_123",
            "byteOffset": 0,
            "byteStride": 12,
            "componentType": 5126,
            "count": 24,
            "max": [
                0.504825,
                -0.01,
                0.00499999
            ],
            "min": [
                0.01,
                -0.473725,
                -0.00499999
            ],
            "type": "VEC3"
        },
        "accessor_40": {
            "bufferView": "bufferView_123",
            "byteOffset": 288,
            "byteStride": 12,
            "componentType": 5126,
            "count": 24,
            "max": [
                0.889558,
                1,
                1
            ],
            "min": [
                -1,
                -0.947973,
                -1
            ],
            "type": "VEC3"
        },
        "accessor_56": {
            "bufferView": "bufferView_122",
            "byteOffset": 72,
            "byteStride": 0,
            "componentType": 5123,
            "count": 21,
            "type": "SCALAR"
        },
        "accessor_58": {
            "bufferView": "bufferView_123",
            "byteOffset": 576,
            "byteStride": 12,
            "componentType": 5126,
            "count": 15,
            "max": [
                -0.01,
                0.489834,
                0.00499999
            ],
            "min": [
                -0.256413,
                0.01,
                -0.00499999
            ],
            "type": "VEC3"
        },
        "accessor_60": {
            "bufferView": "bufferView_123",
            "byteOffset": 756,
            "byteStride": 12,
            "componentType": 5126,
            "count": 15,
            "max": [
                1,
                0.456822,
                0
            ],
            "min": [
                -0.889558,
                -1,
                -1
            ],
            "type": "VEC3"
        },
        "accessor_76": {
            "bufferView": "bufferView_122",
            "byteOffset": 114,
            "byteStride": 0,
            "componentType": 5123,
            "count": 3,
            "type": "SCALAR"
        },
        "accessor_78": {
            "bufferView": "bufferView_123",
            "byteOffset": 936,
            "byteStride": 12,
            "componentType": 5126,
            "count": 3,
            "max": [
                -0.01,
                0.489834,
                0.00499999
            ],
            "min": [
                -0.256413,
                0.01,
                0.00499999
            ],
            "type": "VEC3"
        },
        "accessor_80": {
            "bufferView": "bufferView_123",
            "byteOffset": 972,
            "byteStride": 12,
            "componentType": 5126,
            "count": 3,
            "max": [
                0,
                0,
                1
            ],
            "min": [
                0,
                0,
                1
            ],
            "type": "VEC3"
        },
        "accessor_96": {
            "bufferView": "bufferView_122",
            "byteOffset": 120,
            "byteStride": 0,
            "componentType": 5123,
            "count": 24,
            "type": "SCALAR"
        },
        "accessor_98": {
            "bufferView": "bufferView_123",
            "byteOffset": 1008,
            "byteStride": 12,
            "componentType": 5126,
            "count": 18,
            "max": [
                0.256413,
                0.489834,
                0.00499999
            ],
            "min": [
                0.01,
                0.01,
                -0.00499999
            ],
            "type": "VEC3"
        }
    },
    "animations": {},
    "asset": {
        "generator": "collada2gltf@173625dc5ff1b7e8046666be1f3ca2835512ac08",
        "premultipliedAlpha": true,
        "profile": "WebGL 1.0.2",
        "version": 0.8
    },
    "bufferViews": {
        "bufferView_122": {
            "buffer": "Model",
            "byteLength": 240,
            "byteOffset": 0,
            "target": 34963
        },
        "bufferView_123": {
            "buffer": "Model",
            "byteLength": 2016,
            "byteOffset": 240,
            "target": 34962
        }
    },
    "buffers": {
        "Model": {
            "byteLength": 2256,
            "type": "arraybuffer",
            "uri": "data:application/octet-stream;base64,"
        }
    },
    "materials": {
        "ID14": {
            "instanceTechnique": {
                "technique": "technique0",
                "values": {
                    "diffuse": [
                        0.117647,
                        0.117647,
                        0.117647,
                        1
                    ]
                }
            },
            "name": "Color_008"
        },
        "ID28": {
            "instanceTechnique": {
                "technique": "technique0",
                "values": {
                    "diffuse": [
                        1,
                        1,
                        1,
                        1
                    ]
                }
            },
            "name": "Color_000"
        },
        "ID6": {
            "instanceTechnique": {
                "technique": "technique0",
                "values": {
                    "diffuse": [
                        1,
                        1,
                        1,
                        1
                    ]
                }
            },
            "name": "__White_"
        }
    },
    "meshes": {
        "ID12": {
            "name": "ID12",
            "primitives": [
                {
                    "attributes": {
                        "NORMAL": "accessor_40",
                        "POSITION": "accessor_38"
                    },
                    "indices": "accessor_36",
                    "material": "ID14",
                    "primitive": 4
                }
            ]
        },
        "ID20": {
            "name": "ID20",
            "primitives": [
                {
                    "attributes": {
                        "NORMAL": "accessor_60",
                        "POSITION": "accessor_58"
                    },
                    "indices": "accessor_56",
                    "material": "ID6",
                    "primitive": 4
                }
            ]
        },
        "ID26": {
            "name": "ID26",
            "primitives": [
                {
                    "attributes": {
                        "NORMAL": "accessor_80",
                        "POSITION": "accessor_78"
                    },
                    "indices": "accessor_76",
                    "material": "ID28",
                    "primitive": 4
                }
            ]
        },
        "ID34": {
            "name": "ID34",
            "primitives": [
                {
                    "attributes": {
                        "NORMAL": "accessor_100",
                        "POSITION": "accessor_98"
                    },
                    "indices": "accessor_96",
                    "material": "ID14",
                    "primitive": 4
                }
            ]
        },
        "ID4": {
            "name": "ID4",
            "primitives": [
                {
                    "attributes": {
                        "NORMAL": "accessor_20",
                        "POSITION": "accessor_18"
                    },
                    "indices": "accessor_16",
                    "material": "ID6",
                    "primitive": 4
                }
            ]
        },
        "ID40": {
            "name": "ID40",
            "primitives": [
                {
                    "attributes": {
                        "NORMAL": "accessor_120",
                        "POSITION": "accessor_118"
                    },
                    "indices": "accessor_116",
                    "material": "ID28",
                    "primitive": 4
                }
            ]
        }
    },
    "nodes": {
        "ID2": {
            "children": [
                "ID3"
            ],
            "matrix": [
                1,
                0,
                0,
                0,
                0,
                1,
                0,
                0,
                0,
                0,
                1,
                0,
                0.504825,
                0.473725,
                0.15,
                1
            ],
            "name": "instance_0"
        },
        "ID3": {
            "children": [],
            "matrix": [
                1,
                0,
                0,
                0,
                0,
                1,
                0,
                0,
                0,
                0,
                1,
                0,
                0,
                0,
                0,
                1
            ],
            "meshes": [
                "ID4",
                "ID12",
                "ID20",
                "ID26",
                "ID34",
                "ID40"
            ],
            "name": "Grouper_1"
        },
        "node_0": {
            "children": [
                "ID2"
            ],
            "matrix": [
                1,
                0,
                0,
                0,
                0,
                1,
                0,
                0,
                0,
                0,
                1,
                0,
                0,
                0,
                0,
                1
            ],
            "name": "SketchUp"
        },
        "node_3": {
            "children": [
                "node_0"
            ],
            "matrix": [
                1,
                0,
                0,
                0,
                0,
                0,
                -1,
                0,
                0,
                1,
                0,
                0,
                0,
                0,
                0,
                1
            ],
            "name": "Y_UP_Transform"
        }
    },
    "programs": {
        "program_0": {
            "attributes": [
                "a_normal",
                "a_position"
            ],
            "fragmentShader": "Model0FS",
            "vertexShader": "Model0VS"
        }
    },
    "scene": "defaultScene",
    "scenes": {
        "defaultScene": {
            "nodes": [
                "node_3"
            ]
        }
    },
    "shaders": {
        "Model0FS": {
            "type": 35632,
            "uri": "data:text/plain;base64,"
        },
        "Model0VS": {
            "type": 35633,
            "uri": "data:text/plain;base64,"
        }
    },
    "skins": {},
    "techniques": {
        "technique0": {
            "parameters": {
                "diffuse": {
                    "type": 35666
                },
                "modelViewMatrix": {
                    "semantic": "MODELVIEW",
                    "type": 35676
                },
                "normal": {
                    "semantic": "NORMAL",
                    "type": 35665
                },
                "normalMatrix": {
                    "semantic": "MODELVIEWINVERSETRANSPOSE",
                    "type": 35675
                },
                "position": {
                    "semantic": "POSITION",
                    "type": 35665
                },
                "projectionMatrix": {
                    "semantic": "PROJECTION",
                    "type": 35676
                }
            },
            "pass": "defaultPass",
            "passes": {
                "defaultPass": {
                    "details": {
                        "commonProfile": {
                            "extras": {
                                "doubleSided": false
                            },
                            "lightingModel": "Lambert",
                            "parameters": [
                                "diffuse",
                                "modelViewMatrix",
                                "normalMatrix",
                                "projectionMatrix"
                            ]
                        },
                        "type": "COLLADA-1.4.1/commonProfile"
                    },
                    "instanceProgram": {
                        "attributes": {
                            "a_normal": "normal",
                            "a_position": "position"
                        },
                        "program": "program_0",
                        "uniforms": {
                            "u_diffuse": "diffuse",
                            "u_modelViewMatrix": "modelViewMatrix",
                            "u_normalMatrix": "normalMatrix",
                            "u_projectionMatrix": "projectionMatrix"
                        }
                    },
                    "states": {
                        "enable": [
                            2884,
                            2929
                        ]
                    }
                }
            }
        }
    }
}